# xmcd
#
# Track frame offsets: 
#        182
#        13102
#        26905
#        39677
#        53062
#        66170
#        78535
#        91892
#        105537
#        119027
#        131220
#        147097
#        158025
#        170157
#
# Disc length: 2435 seconds
#
# Revision: 3
# Processed by: cddbd v1.5.2PL0 Copyright (c) Steve Scherf et al.
# Submitted via: ExactAudioCopy v0.95b3
#
DISCID=c709810e
DTITLE=Big Bill Broonzy - Do That Guitar Rag
DYEAR=1991
DGENRE=Blues
TTITLE0=Bull Cow Blues
TTITLE1=Worrying You Off My Mind, Part 1
TTITLE2=Pig Meat Strut
TTITLE3=Terrible Operation Blues
TTITLE4=Guitar Rag
TTITLE5=Pussy Cat Blues
TTITLE6=C and A Blues
TTITLE7=Mr. Conductor Man
TTITLE8=Big Bill Blues
TTITLE9=Leave My Man Alone
TTITLE10=Down In The Basement
TTITLE11=Grandma's Farm
TTITLE12=Double Trouble Blues
TTITLE13=Skoodle Do Do
EXTD=CD: Yazoo 1035 (1991-11-26), UPC 016351013521.
EXTT0=
EXTT1=
EXTT2=
EXTT3=
EXTT4=
EXTT5=
EXTT6=
EXTT7=
EXTT8=
EXTT9=
EXTT10=
EXTT11=
EXTT12=
EXTT13=
PLAYORDER=
